<?xml version="1.0" standalone="no"?>
<!DOCTYPE svg PUBLIC "-//W3C//DTD SVG 20010904//EN"
 "http://www.w3.org/TR/2001/REC-SVG-20010904/DTD/svg10.dtd">
<svg version="1.0" xmlns="http://www.w3.org/2000/svg"
 width="424.000000pt" height="432.000000pt" viewBox="0 0 424.000000 432.000000"
 preserveAspectRatio="xMidYMid meet">
    <style>
        path {
            fill: black;
        }
    </style>
    <g transform="translate(0.000000,432.000000) scale(0.100000,-0.100000)"
    fill="#000000" stroke="none">
    <path d="M1925 4220 c-528 -54 -1019 -308 -1362 -705 -279 -322 -444 -698
    -494 -1120 -17 -144 -6 -482 20 -608 31 -153 67 -276 117 -399 257 -641 827
    -1116 1504 -1252 749 -151 1509 115 1998 699 562 670 639 1636 190 2384 -126
    211 -343 453 -531 593 -269 200 -577 331 -907 387 -144 25 -400 34 -535 21z
    m369 -100 c737 -70 1366 -530 1645 -1204 110 -264 158 -537 148 -826 -14 -373
    -121 -708 -327 -1017 -536 -808 -1577 -1103 -2463 -699 -313 142 -612 399
    -812 697 -77 114 -184 332 -228 465 -66 201 -88 332 -94 569 -6 230 5 338 52
    533 147 608 601 1123 1194 1356 122 48 330 101 451 115 52 6 109 13 125 15 66
    7 206 5 309 -4z"/>
    <path d="M1480 2847 l0 -784 -53 -12 c-76 -17 -164 -62 -221 -112 -84 -74
    -132 -161 -160 -291 l-6 -28 -195 0 -195 0 0 -50 0 -50 197 -2 196 -3 13 -57
    c39 -172 196 -325 368 -360 l56 -11 0 -198 0 -199 50 0 50 0 0 198 0 199 53
    12 c182 40 333 190 370 367 l11 54 788 0 788 0 0 50 0 50 -789 0 -788 0 -7 48
    c-3 26 -22 81 -41 121 -62 129 -189 230 -330 262 l-55 12 0 784 0 783 -50 0
    -50 0 0 -783z m0 -1057 l0 -170 -169 0 -169 0 9 40 c29 131 135 246 262 285
    71 23 67 32 67 -155z m218 133 c101 -47 192 -164 209 -268 l6 -35 -167 0 -166
    0 0 171 0 171 33 -7 c17 -4 56 -18 85 -32z m-218 -569 l0 -166 -32 7 c-137 27
    -274 162 -295 289 l-6 36 167 0 166 0 0 -166z m426 134 c-27 -134 -158 -266
    -293 -293 l-33 -7 0 166 0 166 166 0 167 0 -7 -32z"/>
    </g>
</svg>
